# xmcd
#
# Track frame offsets:
#	150
#	14066
#	31611
#	57753
#	73227
#	88920
#	103725
#	119235
#	130997
#	149461
#	162774
#	177268
#	191054
#
# Disc length: 2779 seconds
# Revision: 2
# Processed by: cddbd v1.5.2PL0 Copyright (c) Steve Scherf et al.
# Submitted via: dBpowerAMP V12.0
#
DISCID=c30ad90d
DTITLE=Caitlin - Infamous Angel
DYEAR=2016
DGENRE=Country
TTITLE0=Sweetheart Darling Of Mine
TTITLE1=Bright Blue Rose
TTITLE2=After The Ball
TTITLE3=Prayin For Me
TTITLE4=Men Of Worth
TTITLE5=Come My Little Son
TTITLE6=Living In These Troubled Times
TTITLE7=Cheatin' Fire
TTITLE8=You Ain't Dolly - Duet with Joe Moore
TTITLE9=Erin's Lovely Shore
TTITLE10=Infamous Angel
TTITLE11=Streets Of Promise
TTITLE12=Christmas Eve In Ireland
EXTD=
EXTT0=
EXTT1=
EXTT2=
EXTT3=
EXTT4=
EXTT5=
EXTT6=
EXTT7=
EXTT8=
EXTT9=
EXTT10=
EXTT11=
EXTT12=
PLAYORDER=
